<?xml version="1.0" encoding="utf-8"?>
<!-- Generator: Adobe Illustrator 14.0.0, SVG Export Plug-In . SVG Version: 6.00 Build 43363)  -->
<!DOCTYPE svg PUBLIC "-//W3C//DTD SVG 1.1//EN" "http://www.w3.org/Graphics/SVG/1.1/DTD/svg11.dtd">
<svg version="1.1" id="Layer_1" xmlns="http://www.w3.org/2000/svg" xmlns:xlink="http://www.w3.org/1999/xlink" x="0px" y="0px"
	 width="79.37px" height="53.86px" viewBox="0 0 79.37 53.86" enable-background="new 0 0 79.37 53.86" xml:space="preserve">
<path fill-rule="evenodd" clip-rule="evenodd" fill="#C9C7C7" d="M24.379,36.744l-1.871,10.699h27.222l2.478-14.149h3.082
	L52.238,50.72H18.68l2.445-13.976H24.379z M23.883,22.936l3.41-19.496h27.566l4.906,6.211l-1.75,10.008H54.93l1.091-6.211H49.34
	l1.181-6.731H29.973l-2.84,16.219H23.883z M53.168,10.167h3.426l-2.823-3.45L53.168,10.167z"/>
<path fill-rule="evenodd" clip-rule="evenodd" fill="#204D9C" d="M71.863,31.923h-3.302l2.161-12.335h3.23l-0.758,4.325
	c-0.066,0.363-0.152,0.781-0.27,1.254c0.379-0.473,0.734-0.817,1.074-1.012c0.344-0.199,0.754-0.293,1.227-0.293
	c0.878,0,1.496,0.367,1.852,1.101c0.355,0.731,0.414,1.758,0.184,3.089c-0.223,1.271-0.645,2.259-1.266,2.966
	c-0.621,0.711-1.367,1.067-2.242,1.067c-0.426,0-0.766-0.091-1.031-0.267c-0.129-0.09-0.258-0.215-0.383-0.371
	c-0.125-0.155-0.246-0.348-0.36-0.586c-0.011,0.094-0.019,0.172-0.026,0.238c-0.008,0.067-0.012,0.12-0.012,0.163L71.863,31.923z"/>
<path fill-rule="evenodd" clip-rule="evenodd" fill="#204D9C" d="M12.105,31.923H8.477L7.52,27.904
	c-0.004-0.067-0.016-0.155-0.039-0.271c-0.02-0.108-0.047-0.246-0.078-0.397l-0.105,0.742l-0.691,3.944h-3.34l1.973-11.276h3.438
	c1.516,0,2.602,0.27,3.258,0.809c0.836,0.695,1.141,1.675,0.918,2.953c-0.238,1.363-1.047,2.304-2.422,2.828L12.105,31.923z"/>
<path fill-rule="evenodd" clip-rule="evenodd" fill="#204D9C" d="M18.02,29.249l3.145,0.062c-0.387,0.918-0.945,1.608-1.68,2.073
	c-0.734,0.47-1.625,0.701-2.68,0.701c-1.246,0-2.16-0.353-2.746-1.052c-0.578-0.715-0.762-1.684-0.547-2.914
	c0.223-1.254,0.777-2.274,1.672-3.063c0.895-0.793,1.941-1.191,3.141-1.191c1.191,0,2.074,0.383,2.648,1.148
	c0.574,0.77,0.75,1.789,0.527,3.059l-0.105,0.519H16.66c-0.105,0.81,0.078,1.211,0.543,1.211
	C17.57,29.802,17.84,29.619,18.02,29.249"/>
<path fill-rule="evenodd" clip-rule="evenodd" fill="#204D9C" d="M24.691,35.443h-3.23l1.996-11.414h3.231l-0.271,1.113
	c0.176-0.23,0.348-0.43,0.516-0.594c0.168-0.16,0.34-0.293,0.52-0.398c0.18-0.102,0.367-0.176,0.559-0.223
	c0.195-0.043,0.402-0.07,0.629-0.07c0.836,0,1.453,0.383,1.848,1.141c0.387,0.75,0.473,1.746,0.258,2.988
	c-0.223,1.263-0.645,2.258-1.273,2.992c-0.617,0.737-1.355,1.106-2.215,1.106c-0.785,0-1.395-0.412-1.836-1.235
	c-0.02,0.25-0.039,0.461-0.066,0.641c-0.016,0.183-0.047,0.406-0.09,0.668L24.691,35.443z"/>
<path fill-rule="evenodd" clip-rule="evenodd" fill="#EC2227" d="M39.816,28.095c-0.212,1.22-0.75,2.188-1.617,2.906
	c-0.867,0.724-1.926,1.084-3.172,1.084c-1.223,0-2.132-0.369-2.73-1.106c-0.59-0.738-0.773-1.729-0.555-2.979
	c0.219-1.244,0.758-2.248,1.629-3c0.863-0.758,1.895-1.141,3.105-1.141c1.273,0,2.203,0.379,2.797,1.137
	C39.867,25.744,40.047,26.783,39.816,28.095"/>
<path fill-rule="evenodd" clip-rule="evenodd" fill="#204D9C" d="M43.625,31.923h-3.229l1.382-7.894h3.23l-0.441,1.539
	c0.691-1.152,1.602-1.731,2.727-1.731l-0.574,3.287c-0.323-0.177-0.609-0.263-0.855-0.263c-0.434,0-0.793,0.144-1.074,0.426
	c-0.285,0.285-0.478,0.699-0.57,1.246L43.625,31.923z"/>
<polygon fill-rule="evenodd" clip-rule="evenodd" fill="#204D9C" points="50.484,31.923 47.25,31.923 48.219,26.384 47.301,26.384 
	47.711,24.029 48.629,24.029 49.035,21.705 52.273,21.705 51.867,24.029 52.938,24.029 52.523,26.384 51.453,26.384 "/>
<polygon fill-rule="evenodd" clip-rule="evenodd" fill="#204D9C" points="58.426,31.923 52.547,31.923 54.521,20.646 57.879,20.646 
	56.379,29.212 58.898,29.212 "/>
<path fill-rule="evenodd" clip-rule="evenodd" fill="#204D9C" d="M67.074,31.923h-3.238c0.074-0.265,0.141-0.515,0.199-0.754
	c0.055-0.238,0.105-0.429,0.145-0.578c-0.73,0.994-1.563,1.494-2.504,1.494c-0.816,0-1.398-0.373-1.746-1.11
	c-0.344-0.734-0.402-1.755-0.176-3.056c0.219-1.257,0.637-2.246,1.254-2.964c0.613-0.73,1.344-1.094,2.188-1.094
	c0.863,0,1.48,0.469,1.844,1.418c0.008-0.102,0.016-0.184,0.022-0.262c0.005-0.07,0.013-0.133,0.017-0.18l0.047-0.461l0.039-0.347
	h3.293L67.074,31.923z"/>
<path fill-rule="evenodd" clip-rule="evenodd" fill="#FFFFFF" d="M7.684,25.865h0.223c0.387,0,0.734-0.133,1.039-0.399
	c0.305-0.269,0.493-0.609,0.563-1.023c0.148-0.844-0.262-1.262-1.234-1.262H8.152L7.684,25.865z"/>
<path fill-rule="evenodd" clip-rule="evenodd" fill="#FFFFFF" d="M18.48,27.013c0.027-0.144,0.031-0.276,0.016-0.401
	c-0.016-0.117-0.051-0.227-0.102-0.313c-0.055-0.086-0.121-0.156-0.203-0.207c-0.082-0.054-0.176-0.078-0.285-0.078
	c-0.223,0-0.422,0.094-0.595,0.281c-0.175,0.188-0.284,0.426-0.335,0.718H18.48z"/>
<path fill-rule="evenodd" clip-rule="evenodd" fill="#FFFFFF" d="M27.418,27.9c0.09-0.521,0.094-0.918,0.012-1.203
	c-0.078-0.285-0.241-0.43-0.484-0.43c-0.5,0-0.844,0.555-1.039,1.659c-0.199,1.129-0.055,1.697,0.43,1.697
	c0.242,0,0.457-0.154,0.652-0.455C27.18,28.869,27.324,28.443,27.418,27.9"/>
<path fill-rule="evenodd" clip-rule="evenodd" fill="#FFFFFF" d="M36.699,27.999c0.055-0.289,0.078-0.556,0.078-0.789
	c-0.004-0.235-0.031-0.438-0.082-0.606c-0.05-0.168-0.125-0.301-0.223-0.391c-0.094-0.093-0.211-0.14-0.352-0.14
	c-0.273,0-0.523,0.176-0.754,0.527c-0.219,0.305-0.383,0.766-0.488,1.379c-0.108,0.602-0.105,1.063,0.008,1.379
	c0.105,0.353,0.297,0.526,0.574,0.526c0.262,0,0.512-0.172,0.746-0.519C36.445,28.982,36.609,28.525,36.699,27.999"/>
<path fill-rule="evenodd" clip-rule="evenodd" fill="#FFFFFF" d="M64.512,27.876c0.055-0.291,0.082-0.541,0.098-0.746
	c0.008-0.203,0-0.371-0.031-0.5s-0.086-0.222-0.164-0.277c-0.074-0.055-0.172-0.082-0.297-0.082c-0.547,0-0.938,0.656-1.168,1.978
	c-0.164,0.944-0.004,1.418,0.484,1.418C63.945,29.667,64.305,29.068,64.512,27.876"/>
<path fill-rule="evenodd" clip-rule="evenodd" fill="#FFFFFF" d="M73.934,27.986c0.195-1.129,0.02-1.692-0.527-1.692
	c-0.48,0-0.816,0.532-1.004,1.593c-0.195,1.117-0.043,1.677,0.457,1.677C73.391,29.564,73.746,29.037,73.934,27.986"/>
</svg>
