<svg width="1200" height="175" xmlns="http://www.w3.org/2000/svg"><style>.st0{fill:#fff}</style><path fill="none" id="canvas_background" d="M-1-1h1202v177H-1z"/><path stroke="none" id="svg_18" stroke-width="0" fill="transparent" d="M0-.355h1200v176H0z"/><g id="svg_1"><g id="svg_2"><path id="svg_3" d="M188.79 128.54V47.72h14.68V81.2h35.95V47.72h14.68v80.82h-14.68V93.82h-35.95v34.72h-14.68z" class="st0"/><path id="svg_4" d="M262.82 96.56c0-21.54 11.66-32.93 29.5-32.93s29.5 11.39 29.5 32.93-11.66 33.62-29.5 33.62-29.5-12.07-29.5-33.62zm14.13 0c0 15.09 5.08 22.37 15.37 22.37 10.15 0 15.23-7.27 15.23-22.37 0-14.41-5.21-21.41-15.23-21.41-10.16.01-15.37 7-15.37 21.41z" class="st0"/><path id="svg_5" d="M368.86 116.87c-2.74 9.19-8.92 13.31-19.49 13.31-11.53 0-19.21-5.9-19.21-20.86V65.13h14.41v41.17c0 8.78 3.16 13.17 10.43 13.17 6.72 0 13.58-5.76 13.58-17.98V65.13H383v63.4h-12.35l-1.79-11.66z" class="st0"/><path id="svg_6" d="M403.58 109.87c1.1 7.14 6.18 10.16 13.31 10.16 6.45 0 11.25-2.47 11.25-7.55 0-4.67-2.33-7.14-9.33-8.78l-9.33-2.19c-11.39-2.88-15.92-8.92-15.92-18.25 0-14.96 12.07-19.62 24.42-19.62 14 0 22.5 5.08 23.6 17.43l-13.72 1.65c-.55-5.9-4.12-8.37-10.7-8.37-6.04 0-9.74 2.74-9.74 7.41 0 4.12 1.78 6.59 7.82 7.96l8.78 1.92c11.8 2.75 18.11 8.51 18.11 19.62 0 13.72-11.11 18.94-25.52 18.94-14.82 0-23.33-4.39-25.39-16.06l12.36-4.27z" class="st0"/><path id="svg_7" d="M491.19 109.19l12.49 3.71c-2.88 12.9-13.72 17.29-25.94 17.29-17.29 0-29.09-11.8-29.09-32.66 0-21.41 11.39-33.89 29.64-33.89 16.88 0 25.66 11.39 25.66 27.44 0 3.29-.55 6.45-1.1 8.51h-40.34c.55 11.53 5.9 19.35 15.78 19.35 6.32-.01 10.85-2.48 12.9-9.75zm-1.23-18.94c.14-.82.14-1.65.14-2.47 0-7.27-4.67-13.17-12.49-13.17-8.37 0-13.72 5.9-14.68 15.64h27.03z" class="st0"/><path id="svg_8" d="M528.79 96.56c0-21.54 11.66-32.93 29.5-32.93s29.5 11.39 29.5 32.93-11.66 33.62-29.5 33.62-29.5-12.07-29.5-33.62zm14.13 0c0 15.09 5.08 22.37 15.37 22.37 10.15 0 15.23-7.27 15.23-22.37 0-14.41-5.21-21.41-15.23-21.41-10.16.01-15.37 7-15.37 21.41z" class="st0"/><path id="svg_9" d="M615 59.38c0-8.65 3.71-11.39 9.74-11.39 4.24 0 7.12.96 10.41 2.73V37.73c-3.32-1.17-7.09-1.82-11.5-1.82-12.08 0-23.05 5.76-23.05 22.91v6.31h-9.19v11.25h9.19v52.15H615V76.38h16.19V65.13H615v-5.75z" class="st0"/></g><g id="svg_10"><path id="svg_11" d="M720.45 112.75c-7.27 11.66-16.47 17.29-33.21 17.29-21.27 0-35.95-15.09-35.95-41.99 0-26.9 15.09-42.13 38.29-42.13 15.37 0 25.66 6.86 31.29 19.76L707 72.55c-3.02-9.06-9.06-13.86-18.11-13.86-14.13 0-22.37 11.25-22.37 29.5 0 18.11 7.41 28.82 22.09 28.82 9.06 0 15.23-3.71 20.17-12.21l11.67 7.95z" class="st0"/><path id="svg_12" d="M725.07 96.42c0-21.54 11.66-32.93 29.5-32.93s29.5 11.39 29.5 32.93-11.66 33.62-29.5 33.62c-17.83 0-29.5-12.07-29.5-33.62zm14.14 0c0 15.09 5.08 22.37 15.37 22.37 10.15 0 15.23-7.27 15.23-22.37 0-14.41-5.21-21.41-15.23-21.41-10.16 0-15.37 7-15.37 21.41z" class="st0"/><path id="svg_13" d="M863.46 63.49c10.57 0 18.53 5.76 18.53 19.35v45.56h-14.41V87.92c0-7.55-2.88-12.21-9.74-12.21-6.72 0-13.17 4.67-13.17 16.74v35.95H830.4V87.92c0-7.55-2.88-12.21-9.88-12.21-6.72 0-13.04 4.67-13.04 16.88v35.81h-14.41V65h11.66l1.78 12.21c3.29-9.74 10.84-13.72 19.62-13.72s15.51 3.71 17.15 14c3.31-10.02 11.27-14 20.18-14z" class="st0"/><path id="svg_14" d="M963.9 63.49c10.57 0 18.53 5.76 18.53 19.35v45.56h-14.41V87.92c0-7.55-2.88-12.21-9.74-12.21-6.72 0-13.17 4.67-13.17 16.74v35.95h-14.27V87.92c0-7.55-2.88-12.21-9.88-12.21-6.72 0-13.04 4.67-13.04 16.88v35.81H893.5V65h11.66l1.78 12.21c3.29-9.74 10.84-13.72 19.62-13.72s15.51 3.71 17.15 14c3.31-10.02 11.27-14 20.19-14z" class="st0"/><path id="svg_15" d="M991.04 96.42c0-21.54 11.66-32.93 29.5-32.93s29.5 11.39 29.5 32.93-11.66 33.62-29.5 33.62-29.5-12.07-29.5-33.62zm14.14 0c0 15.09 5.08 22.37 15.37 22.37 10.15 0 15.23-7.27 15.23-22.37 0-14.41-5.21-21.41-15.23-21.41-10.16 0-15.37 7-15.37 21.41z" class="st0"/><path id="svg_16" d="M1072.49 77.21c3.43-9.47 10.7-13.72 20.31-13.72 10.15 0 19.07 5.76 19.07 19.76v45.14h-14.41V88.05c0-7.55-3.02-12.35-10.29-12.35-7 0-13.72 3.84-13.72 16.88v35.81h-14.41V65h11.66l1.79 12.21z" class="st0"/><path id="svg_17" d="M1131.88 109.73c1.1 7.14 6.18 10.15 13.31 10.15 6.45 0 11.25-2.47 11.25-7.55 0-4.67-2.33-7.14-9.33-8.78l-9.33-2.2c-11.39-2.88-15.92-8.92-15.92-18.25 0-14.96 12.07-19.62 24.42-19.62 14 0 22.51 5.08 23.6 17.43l-13.72 1.65c-.55-5.9-4.12-8.37-10.7-8.37-6.04 0-9.74 2.74-9.74 7.41 0 4.12 1.78 6.59 7.82 7.96l8.78 1.92c11.8 2.74 18.11 8.51 18.11 19.62 0 13.72-11.11 18.94-25.52 18.94-14.82 0-23.33-4.39-25.39-16.05l12.36-4.26z" class="st0"/></g></g><defs><clipPath id="svg_33" clipPathUnits="userSpaceOnUse"><path id="svg_37" d="M461.738 335.87h449.585v-488.575H461.738V335.87z"/></clipPath></defs><g stroke="null" id="svg_42" transform="matrix(.31999 0 0 .31999 -212.487 -83.928)"><g id="svg_40"><path stroke="null" id="svg_36" fill="transparent" d="M723.651 316.607h427v427h-427z"/></g><g id="svg_41"><g stroke="null" transform="matrix(1.33333 0 0 -1.33333 0 651.433)" id="svg_30"><g stroke="null" id="svg_31"><g stroke="null" clip-path="url(#svg_33)" id="svg_32"><g stroke="null" id="svg_34"><path stroke="null" id="svg_35" d="M813.656 218.573l-29.308-78.152c-31.109 8.591-63.839 13.421-97.681 13.421-33.843 0-66.572-4.83-97.682-13.42l-29.308 78.151h23.009c-2.15-5.767-3.472-12.383-3.472-19.537l19.537 9.77v-19.538h-18.748c2.779-16.853 12.579-29.305 24.242-29.305 8.734 0 16.354 7.03 20.803 17.634a9.728 9.728 0 00-3.842 6.123c-.585 3.22.487 6.352 2.6 8.538a28.71 28.71 0 00-5.44 13.491c-1.1 8.575 1.706 16.688 6.929 22.767 6.589-4.563 11.35-11.706 12.45-20.28a28.7 28.7 0 00-1.859-14.43 9.757 9.757 0 001.76-15.323c2.693-3.238 6.013-5.724 9.74-7.183.479-.219.974-.373 1.465-.547.489-.15.956-.349 1.456-.464 1.306-.333 2.634-.558 4.002-.558.091 0 .175.04.265.042.118-.002.227-.042.345-.042 13.488 0 24.421 13.12 24.421 29.305 0 .037-.003.073-.003.11-8.802 0-16.604-3.873-21.975-9.878v29.305c5.371-6.005 13.174-9.878 21.976-9.878l.002.11h.075c0 12.537-4.966 23.376-12.285 29.305h39.073c-7.319-5.929-12.285-16.768-12.285-29.305h.075l.002-.11c8.803 0 16.605 3.873 21.977 9.878v-29.305c-5.371 6.005-13.174 9.877-21.976 9.878 0-.037-.003-.073-.003-.11 0-16.185 10.934-29.305 24.42-29.305.119 0 .228.04.346.042.091-.002.174-.042.266-.042 1.367 0 2.695.226 4 .558.504.115.974.315 1.465.467.489.173.981.327 1.458.544 3.727 1.46 7.046 3.946 9.738 7.184a9.754 9.754 0 00-2.78 8.733 9.733 9.733 0 004.541 6.59 28.712 28.712 0 00-1.859 14.428c1.1 8.575 5.861 15.718 12.45 20.281 5.224-6.079 8.028-14.192 6.928-22.767a28.71 28.71 0 00-5.439-13.49c2.114-2.187 3.186-5.319 2.6-8.539a9.725 9.725 0 00-3.842-6.123c4.449-10.604 12.069-17.634 20.803-17.634 11.663 0 21.464 12.452 24.243 29.305h-18.749v19.537l19.537-9.769c0 7.154-1.321 13.77-3.471 19.537h23.008zm-234.443-87.885v-185.6c-11.371 0-19.536 8.471-19.536 19.536 0 7.501 3.806 13.735 9.768 17.021v14.8c-5.962 3.286-9.768 9.521-9.768 17.021s3.806 13.734 9.768 17.021v14.8c-5.962 3.286-9.768 9.521-9.768 17.021 0 7.501 3.806 13.734 9.768 17.021v14.8c-5.962 3.287-9.768 9.521-9.768 17.021 0 11.066 8.165 19.538 19.536 19.538m224.674-36.557v-14.8c5.962-3.287 9.769-9.52 9.769-17.022 0-7.5-3.807-13.734-9.769-17.02v-14.8c5.962-3.287 9.769-9.52 9.769-17.022 0-7.5-3.807-13.734-9.769-17.02v-14.8c5.962-3.287 9.769-9.52 9.769-17.022 0-11.065-8.166-19.538-19.537-19.538v185.601c11.371 0 19.537-8.47 19.537-19.537 0-7.5-3.807-13.734-9.769-17.02m-48.841-2.548h-19.537v19.537h19.537V91.583zm0-39.073h-19.537v19.537h19.537V52.51zm0-39.074h-19.537v19.537h19.537V13.436zm-39.074 78.147h-19.537v19.537h19.537V91.583zm0-39.073h-19.537v19.537h19.537V52.51zm0-39.074h-19.537v19.537h19.537V13.436zm-39.074 78.147h-19.537v19.537h19.537V91.583zm0-39.073h-19.537v19.537h19.537V52.51zm0-39.074h-19.537v19.537h19.537V13.436zm-39.074 78.147h-19.537v19.537h19.537V91.583zm0-39.073h-19.537v19.537h19.537V52.51zm0-39.074h-19.537v19.537h19.537V13.436zm-39.073 117.221v-185.6l19.536 29.305V-6.1h19.537v-19.537h-4.884v-4.884l14.653-24.42 14.652 24.42v4.884h-4.884V-6.1h19.537v-19.537h-4.884v-4.884l14.653-24.42 14.652 24.42v4.884h-4.884V-6.1h19.537v-19.537h-4.884v-4.884l14.652-24.42 14.653 24.42v4.884h-4.884V-6.1h19.537v-19.537l19.536-29.305v185.6H598.751z" fill-rule="nonzero" fill="#fff"/></g></g></g></g></g></g></svg>